 <svg version="1.0" xmlns="http://www.w3.org/2000/svg" width="700.000000pt" height="289.000000pt" viewBox="0 0 700.000000 289.000000" preserveAspectRatio="xMidYMid meet">
<g transform="translate(0.000000,289.000000) scale(0.100000,-0.100000)" fill="#33006F" stroke="none">
<path d="M3239 2861 c-85 -12 -172 -49 -279 -116 -48 -31 -183 -173 -205 -215
-9 -19 -23 -42 -30 -50 -12 -16 -44 -95 -66 -170 -9 -29 -14 -95 -14 -185 0
-142 5 -170 48 -285 95 -254 357 -446 635 -465 147 -11 268 11 387 69 243 118
394 333 425 604 9 79 -1 203 -21 277 -67 241 -251 435 -487 514 -70 24 -292
36 -393 22z"></path>
<path d="M5370 2521 c-139 -45 -242 -135 -304 -266 -20 -44 -43 -91 -50 -105
-33 -63 -82 -150 -118 -209 -21 -34 -38 -64 -38 -66 0 -6 -153 -230 -239 -350
-373 -521 -938 -1026 -1581 -1415 -46 -28 -95 -53 -107 -56 -13 -4 -23 -12
-23 -20 0 -12 49 -14 288 -14 311 0 441 11 647 55 66 15 131 29 145 31 14 3
34 9 45 13 11 4 61 21 110 36 96 31 164 56 232 86 24 11 46 19 49 19 10 0 218
106 262 134 23 14 44 26 47 26 14 0 244 158 335 230 382 304 681 698 883 1160
67 154 73 260 22 405 -55 157 -166 261 -336 314 -54 17 -205 12 -269 -8z"></path>
<path d="M1367 1679 c-82 -23 -168 -79 -229 -149 -50 -57 -88 -122 -88 -150 0
-11 -4 -22 -10 -25 -5 -3 -10 -24 -10 -45 0 -21 -4 -42 -10 -45 -28 -17 3
-182 53 -285 43 -89 245 -277 489 -457 184 -135 462 -284 658 -353 107 -37
122 -40 225 -40 92 0 121 4 178 25 37 13 81 33 96 45 16 11 32 20 35 20 11 0
259 151 381 232 226 151 466 337 651 507 58 53 131 118 162 145 53 45 75 76
55 76 -5 0 -35 -13 -68 -29 -61 -30 -154 -65 -212 -82 -18 -5 -50 -14 -70 -20
-219 -62 -419 -79 -628 -55 -77 9 -158 21 -180 27 -110 28 -186 50 -210 59
-11 4 -36 14 -55 21 -230 82 -468 231 -685 428 -170 154 -342 203 -528 150z"></path>
</g>
</svg>
